HIERARCHY
ROOT Hips
{
	OFFSET 0.000000 0.000000 0.000000
	CHANNELS 6 Xposition Yposition Zposition Zrotation Yrotation Xrotation 
	JOINT LHipJoint
	{
		OFFSET 0.000000 0.000000 0.000000
		CHANNELS 3 Zrotation Yrotation Xrotation
		JOINT LeftUpLeg
		{
			OFFSET 8.178360 -10.767780 5.035740
			CHANNELS 3 Zrotation Yrotation Xrotation
			JOINT LeftLeg
			{
				OFFSET 14.688660 -40.356780 0.000000
				CHANNELS 3 Zrotation Yrotation Xrotation
				JOINT LeftFoot
				{
					OFFSET 15.373200 -42.237540 0.000000
					CHANNELS 3 Zrotation Yrotation Xrotation
					JOINT LeftToeBase
					{
						OFFSET 0.945840 -2.598660 13.935300
						CHANNELS 3 Zrotation Yrotation Xrotation
						End Site
						{
							OFFSET 0.000000 0.000000 0.000000
						}
					}
				}
			}
		}
	}
	JOINT RHipJoint
	{
		OFFSET 0.000000 0.000000 0.000000
		CHANNELS 3 Zrotation Yrotation Xrotation
		JOINT RightUpLeg
		{
			OFFSET -7.833120 -10.767780 5.035740
			CHANNELS 3 Zrotation Yrotation Xrotation
			JOINT RightLeg
			{
				OFFSET -15.255180 -41.913300 0.000000
				CHANNELS 3 Zrotation Yrotation Xrotation
				JOINT RightFoot
				{
					OFFSET -15.409560 -42.337380 0.000000
					CHANNELS 3 Zrotation Yrotation Xrotation
					JOINT RightToeBase
					{
						OFFSET -0.988380 -2.715540 14.178900
						CHANNELS 3 Zrotation Yrotation Xrotation
						End Site
						{
							OFFSET 0.000000 0.000000 0.000000
						}
					}
				}
			}
		}
	}
	JOINT LowerBack
	{
		OFFSET 0.000000 0.000000 0.000000
		CHANNELS 3 Zrotation Yrotation Xrotation
		JOINT Spine
		{
			OFFSET 0.169620 12.213540 -1.160280
			CHANNELS 3 Zrotation Yrotation Xrotation
			JOINT Spine1
			{
				OFFSET 0.340320 12.293100 -0.256500
				CHANNELS 3 Zrotation Yrotation Xrotation
				JOINT Neck
				{
					OFFSET 0.000000 0.000000 0.000000
					CHANNELS 3 Zrotation Yrotation Xrotation
					JOINT Neck1
					{
						OFFSET -0.325020 10.477440 1.032120
						CHANNELS 3 Zrotation Yrotation Xrotation
						JOINT Head
						{
							OFFSET 0.624420 10.568160 -0.743820
							CHANNELS 3 Zrotation Yrotation Xrotation
							End Site
							{
								OFFSET 0.000000 0.000000 0.000000
							}
						}
					}
				}
				JOINT LeftShoulder
				{
					OFFSET 0.000000 0.000000 0.000000
					CHANNELS 3 Zrotation Yrotation Xrotation
					JOINT LeftArm
					{
						OFFSET 20.174460 7.205340 -1.867260
						CHANNELS 3 Zrotation Yrotation Xrotation
						JOINT LeftForeArm
						{
							OFFSET 29.898000 -0.000000 -0.000000
							CHANNELS 3 Zrotation Yrotation Xrotation
							JOINT LeftHand
							{
								OFFSET 20.901360 -0.000000 -0.000000
								CHANNELS 3 Zrotation Yrotation Xrotation
								JOINT LeftFingerBase
								{
									OFFSET 0.000000 0.000000 0.000000
									CHANNELS 3 Zrotation Yrotation Xrotation
									JOINT LeftHandIndex1
									{
										OFFSET 4.291560 -0.000000 -0.000000
										CHANNELS 3 Zrotation Yrotation Xrotation
										End Site
										{
											OFFSET 0.000000 0.000000 0.000000
										}
									}
								}
								JOINT LThumb
								{
									OFFSET 0.000000 0.000000 0.000000
									CHANNELS 3 Zrotation Yrotation Xrotation
									End Site
									{
										OFFSET 0.000000 0.000000 0.000000
									}
								}
							}
						}
					}
				}
				JOINT RightShoulder
				{
					OFFSET 0.000000 0.000000 0.000000
					CHANNELS 3 Zrotation Yrotation Xrotation
					JOINT RightArm
					{
						OFFSET -18.819600 8.244300 -2.427900
						CHANNELS 3 Zrotation Yrotation Xrotation
						JOINT RightForeArm
						{
							OFFSET -31.451400 -0.000000 -0.000000
							CHANNELS 3 Zrotation Yrotation Xrotation
							JOINT RightHand
							{
								OFFSET -20.665020 -0.000000 -0.000000
								CHANNELS 3 Zrotation Yrotation Xrotation
								JOINT RightFingerBase
								{
									OFFSET 0.000000 0.000000 0.000000
									CHANNELS 3 Zrotation Yrotation Xrotation
									JOINT RightHandIndex1
									{
										OFFSET -3.735180 -0.000000 -0.000000
										CHANNELS 3 Zrotation Yrotation Xrotation
										End Site
										{
											OFFSET 0.000000 0.000000 0.000000
										}
									}
								}
								JOINT RThumb
								{
									OFFSET 0.000000 0.000000 0.000000
									CHANNELS 3 Zrotation Yrotation Xrotation
									End Site
									{
										OFFSET 0.000000 0.000000 0.000000
									}
								}
							}
						}
					}
				}
			}
		}
	}
}
MOTION
Frames:	7
Frame Time:	0.0333333
-91.605042 107.360184 76.609734 1.110624 -43.601923 0.525484 -3.471626 1.396995 2.556616 -15.785983 -7.377333 -9.368601 -0.204568 7.063876 21.214058 -0.057529 0.735985 -2.238098 0.006900 0.536500 1.474300 0.747757 -1.279293 1.204263 21.740480 5.001318 -9.640918 -1.934584 -9.139094 27.761417 -0.691553 1.838213 -5.085953 -0.184700 -2.768300 7.634300 0.108362 0.814418 4.172827 1.537530 1.121613 0.617768 -0.176083 0.522441 -3.092286 -10.286417 -4.243800 -20.055886 4.369021 -3.731072 19.825359 3.360100 -2.417500 14.535600 -6.541235 -0.913160 -1.668764 -85.371169 3.033400 22.171732 14.756063 -20.786203 -3.200885 -1.244592 -2.337263 9.859111 16.367957 23.514711 7.738500 -7.125000 0.000000 0.000000 -13.842100 56.510600 -3.959200 5.380838 1.191933 -1.218370 85.432295 -1.417389 17.319712 -14.958558 22.164413 -3.116589 0.299300 -0.256922 10.427244 -14.107142 10.178178 -2.654700 7.125000 0.000000 0.000000 8.911800 -19.348700 5.522600 
-91.598436 107.343366 76.572492 1.171821 -43.580485 0.516805 -3.468722 1.382131 2.562613 -15.867570 -7.020151 -9.540651 -0.199233 7.066102 21.224486 -0.053845 0.698784 -2.146749 0.016900 -0.840400 -2.309700 0.746786 -1.278452 1.206216 21.694936 4.986423 -9.742220 -1.946153 -9.160295 27.826672 -0.694446 1.855941 -5.070374 -0.182400 -2.750900 7.586100 0.001969 0.787614 4.160451 1.552973 1.072694 0.537919 -0.100919 0.504186 -3.240988 -10.102235 -4.067039 -19.815546 4.174598 -3.558018 19.814744 3.264000 -2.354800 14.442800 -6.524866 -0.923320 -1.673261 -85.565822 3.201272 21.655187 14.831440 -20.891304 -3.232262 -1.217484 -2.356074 10.193702 15.930593 23.735515 7.575800 -7.125000 0.000000 0.000000 -14.472900 56.648900 -4.193600 5.381246 1.168107 -1.237933 85.407494 -1.871406 17.859237 -15.099119 22.356646 -3.178282 0.292751 -0.237053 10.092459 -13.781536 9.824283 -2.499000 7.125000 0.000000 0.000000 9.159300 -19.743100 5.598200 
-91.603842 107.367390 76.545462 1.416902 -43.729317 0.335812 -3.482390 1.392441 2.558969 -15.999737 -7.353822 -9.327681 -0.226163 7.013997 21.076834 -0.076564 0.840892 -2.181999 0.020700 0.928500 2.552100 0.746939 -1.279770 1.207732 21.489262 5.027447 -9.801767 -1.965964 -9.196926 27.935427 -0.721679 2.010549 -5.018579 -0.216600 -2.995900 8.267300 -0.161775 0.784850 4.031518 1.503325 1.059167 0.567638 -0.091331 0.496691 -3.115515 -10.160284 -4.002049 -19.752632 4.344956 -3.475964 19.849991 3.366000 -2.307000 14.437600 -6.533452 -0.915412 -1.670249 -85.525622 3.139338 21.630014 14.820568 -20.879093 -3.226308 -1.268582 -2.322929 10.000835 16.666263 23.424937 7.861600 -7.125000 0.000000 0.000000 -13.459600 56.479400 -3.836700 5.383509 1.173664 -1.228651 85.525671 -1.753022 17.767695 -14.930848 22.118290 -3.106468 0.296870 -0.250123 10.264570 -13.956410 10.045898 -2.590700 7.125000 0.000000 0.000000 9.024500 -19.497000 5.564000 
-91.611654 107.333754 76.462572 1.709513 -43.826417 0.098542 -3.479261 1.376926 2.576208 -16.256810 -6.673763 -9.524254 -0.228327 6.989501 21.013349 -0.049931 0.648041 -2.051840 0.015300 -0.797800 -2.192700 0.744768 -1.271458 1.199267 21.301907 5.180469 -9.835436 -1.999039 -9.258076 28.124028 -0.726167 2.003079 -5.139183 -0.217500 -3.002600 8.286100 -0.421245 0.857495 4.020140 1.461285 1.138704 0.569390 -0.007648 0.537378 -3.123064 -10.387386 -4.128295 -19.716235 4.631961 -3.610145 19.901456 3.515800 -2.352400 14.486100 -6.537061 -0.887736 -1.677186 -85.498445 3.214460 21.933900 14.892062 -20.986219 -3.263614 -1.257058 -2.336571 9.705630 16.680357 23.488846 7.887800 -7.125000 0.000000 0.000000 -13.483100 56.552500 -3.867600 5.377551 1.196979 -1.217243 85.739188 -1.689955 17.070907 -14.841216 21.986727 -3.065626 0.300055 -0.258279 10.857912 -14.181462 10.055535 -2.637900 7.125000 0.000000 0.000000 8.860400 -19.470500 5.465600 
-91.603242 107.335554 76.418724 1.811537 -43.930734 -0.072204 -3.486194 1.396117 2.579437 -16.264137 -6.980670 -9.257422 -0.247044 6.952526 20.907241 -0.063791 0.734489 -2.061556 0.027700 1.074900 2.954800 0.740409 -1.274825 1.194426 21.253410 5.254567 -9.731709 -2.006452 -9.272344 28.166592 -0.715750 1.968961 -5.048332 -0.221100 -3.027200 8.354500 -0.497617 0.910219 4.078234 1.446328 1.208263 0.664832 0.000715 0.568695 -2.987570 -10.370026 -4.207208 -19.922456 4.643697 -3.698846 19.848055 3.500600 -2.378200 14.516000 -6.543287 -0.895055 -1.669073 -85.491515 2.985225 21.812375 14.897558 -20.985085 -3.264445 -1.256335 -2.315935 9.744919 16.687905 23.249218 7.819400 -7.125000 0.000000 0.000000 -13.338200 56.298100 -3.742300 5.380953 1.204398 -1.209907 85.760063 -1.533952 16.842806 -14.844777 21.999444 -3.068434 0.293433 -0.263753 10.877994 -14.029360 10.257368 -2.660500 7.125000 0.000000 0.000000 8.966800 -19.267400 5.574000 
-91.590630 107.309124 76.355658 1.687009 -43.921845 -0.017412 -3.474886 1.384169 2.592345 -16.203014 -6.496986 -9.471175 -0.229514 6.977042 20.980743 -0.037977 0.562033 -1.977244 0.012100 -0.711000 -1.954100 0.737436 -1.273452 1.193386 21.376515 5.159697 -9.763859 -2.010707 -9.275904 28.184066 -0.728228 2.033560 -5.069434 -0.221500 -3.029500 8.360900 -0.360700 0.896379 4.080554 1.467042 1.194289 0.592776 -0.044507 0.566726 -3.116009 -10.251439 -4.178091 -19.937810 4.395193 -3.693001 20.129769 3.372500 -2.406000 14.643500 -6.526536 -0.898311 -1.680507 -85.585825 3.298548 21.510087 14.978857 -21.111042 -3.301970 -1.240214 -2.336956 9.952380 16.450672 23.509086 7.772800 -7.125000 0.000000 0.000000 -13.762800 56.522500 -3.939900 5.379525 1.176588 -1.227498 85.784856 -1.779219 16.880245 -14.902205 22.074044 -3.091248 0.296765 -0.252330 10.949690 -14.086306 9.920663 -2.583600 7.125000 0.000000 0.000000 8.934000 -19.619000 5.482100 
-91.599036 107.324142 76.282380 1.681253 -43.856575 -0.013345 -3.473367 1.381236 2.588752 -16.162749 -6.512340 -9.508000 -0.228067 6.979468 20.987389 -0.033692 0.524396 -1.909669 0.008700 -0.602100 -1.654700 0.737937 -1.273767 1.193552 21.414885 5.185626 -9.773753 -2.007546 -9.271154 28.169377 -0.714268 1.969948 -5.023800 -0.222800 -3.038700 8.386600 -0.375694 0.844997 4.046675 1.474956 1.123390 0.599609 -0.015342 0.532611 -3.082054 -10.215302 -4.113704 -19.849624 4.314853 -3.604509 19.949508 3.342000 -2.371500 14.521300 -6.530581 -0.904091 -1.676976 -85.562630 3.297682 21.392037 14.921698 -21.031005 -3.275552 -1.251550 -2.297123 10.032849 16.601352 23.067878 7.718100 -7.125000 0.000000 0.000000 -13.341600 56.084900 -3.674000 5.389079 1.168514 -1.224273 85.796822 -1.595908 16.620180 -14.771467 21.894917 -3.038171 0.286063 -0.268455 11.254548 -13.913833 10.291834 -2.646900 7.125000 0.000000 0.000000 9.050900 -19.234900 5.634300 
